<svg xmlns="http://www.w3.org/2000/svg" version="1.1" xmlns:xlink="http://www.w3.org/1999/xlink" xmlns:svgjs="http://svgjs.dev/svgjs" width="2000" height="2205" viewBox="0 0 2000 2205"><g transform="matrix(1,0,0,1,0.9197313517257726,0.8927125506072571)"><svg viewBox="0 0 224 247" data-background-color="#ffffff" preserveAspectRatio="xMidYMid meet" height="2205" width="2000" xmlns="http://www.w3.org/2000/svg" xmlns:xlink="http://www.w3.org/1999/xlink"><g id="tight-bounds" transform="matrix(1,0,0,1,-0.1030099113932863,-0.09999999999999432)"><svg viewBox="0 0 224.20601982278657 247.2" height="247.2" width="224.20601982278657"><g><svg viewBox="0 0 395.52 436.08349176922115" height="247.2" width="224.20601982278657"><g transform="matrix(1,0,0,1,0,262.78708347257475)"><svg viewBox="0 0 395.52 173.29640829664638" height="173.29640829664638" width="395.52"><g id="textblocktransform"><svg viewBox="0 0 395.52 173.29640829664638" height="173.29640829664638" width="395.52" id="textblock"><g><svg viewBox="0 0 395.52 93.4678019113814" height="93.4678019113814" width="395.52"><g transform="matrix(1,0,0,1,0,0)"><svg width="395.52" viewBox="4 -26.6 115.09 27.200000000000003" height="93.4678019113814" data-palette-color="#ffdc00"><path d="M8.5 0L4 0 4-26 8.35-26 8.35-21.65Q9.75-23.75 11.93-25.18 14.1-26.6 17.1-26.6L17.1-26.6Q21.5-26.6 23.68-23.95 25.85-21.3 25.85-16.95L25.85-16.95 25.85 0 21.35 0 21.35-16.45Q21.35-19.25 20.03-20.95 18.7-22.65 16.35-22.65L16.35-22.65Q14.05-22.65 12-21.03 9.95-19.4 8.5-17.2L8.5-17.2 8.5 0ZM44 0.6L44 0.6Q38.4 0.6 35.12-2.98 31.85-6.55 31.85-13L31.85-13Q31.85-16.9 33.32-19.98 34.8-23.05 37.45-24.83 40.1-26.6 43.6-26.6L43.6-26.6Q47.35-26.6 49.82-24.98 52.3-23.35 53.55-20.6 54.8-17.85 54.8-14.55L54.8-14.55Q54.8-12.8 54.65-11.15L54.65-11.15 36.45-11.15Q36.9-7.5 39-5.45 41.1-3.4 44.55-3.4L44.55-3.4Q46.8-3.4 48.6-3.88 50.4-4.35 52.05-5.1L52.05-5.1 53.1-1.25Q51.3-0.45 49.05 0.08 46.8 0.6 44 0.6ZM36.4-14.8L36.4-14.8 50.65-14.8Q50.65-18.6 48.75-20.65 46.85-22.7 43.5-22.7L43.5-22.7Q40.6-22.7 38.7-20.68 36.8-18.65 36.4-14.8ZM71.2 0L66.25 0 58.05-24.8 62.2-26.25 68.9-5.1 75-24.15 79.84-24.15 85.8-5.1 92.44-26.25 96.45-24.8 88.2 0 83.25 0 77.25-19.35 71.2 0ZM108.69 0.6L108.69 0.6Q105.74 0.6 103.37-0.15 100.99-0.9 99.44-2.1L99.44-2.1 101.34-5.85Q102.64-4.75 104.62-4.03 106.59-3.3 108.84-3.3L108.84-3.3Q111.64-3.3 113.07-4.23 114.49-5.15 114.49-6.6L114.49-6.6Q114.49-7.65 113.97-8.45 113.44-9.25 112.04-10.03 110.64-10.8 107.99-11.7L107.99-11.7Q104.34-12.95 102.52-14.68 100.69-16.4 100.69-19.45L100.69-19.45Q100.69-22.45 103.32-24.53 105.94-26.6 110.59-26.6L110.59-26.6Q113.09-26.6 115.04-26.08 116.99-25.55 118.54-24.75L118.54-24.75 117.29-21.05Q115.94-21.85 114.22-22.35 112.49-22.85 110.39-22.85L110.39-22.85Q107.79-22.85 106.44-21.8 105.09-20.75 105.09-19.5L105.09-19.5Q105.09-18.3 106.14-17.45 107.19-16.6 110.24-15.6L110.24-15.6Q115.19-13.95 117.14-11.95 119.09-9.95 119.09-6.95L119.09-6.95Q119.09-3.45 116.27-1.43 113.44 0.6 108.69 0.6Z" opacity="1" transform="matrix(1,0,0,1,0,0)" fill="#ffdc00" class="wordmark-text-0" data-fill-palette-color="primary" id="text-0"></path></svg></g></svg></g><g transform="matrix(1,0,0,1,0,115.53330671541268)"><svg viewBox="0 0 395.52 57.763101581233705" height="57.763101581233705" width="395.52"><g transform="matrix(1,0,0,1,0,0)"><svg width="395.52" viewBox="1 -24.71 173.36 25.32" height="57.763101581233705" data-palette-color="#000000"><path d="M27.34-1.95L27.34 0 16.31 0 16.31-1.95 18.41-2.1Q18.85-2.15 19.15-2.44 19.46-2.73 19.46-3.2L19.46-3.2 19.46-16.21Q19.46-18.58 18.36-19.81 17.26-21.04 14.65-21.04L14.65-21.04Q13.23-21.04 11.83-20.64 10.42-20.24 9.16-19.6L9.16-19.6 9.16-3.2Q9.16-2.17 10.21-2.1L10.21-2.1 12.3-1.95 12.3 0 1 0 1-1.95 3.44-2.1Q4.49-2.17 4.49-3.2L4.49-3.2 4.49-20.56 1-20.56 1-22.19 7.1-24.1 9.16-24.1 9.16-21.61Q11.25-22.8 13.46-23.75 15.67-24.71 17.41-24.71L17.41-24.71Q20.68-24.71 22.39-22.67 24.1-20.63 24.1-16.99L24.1-16.99 24.1-3.2Q24.1-2.73 24.4-2.44 24.71-2.15 25.15-2.1L25.15-2.1 27.34-1.95ZM72.53-5.54L72.53-2.49Q70.43-1.2 68-0.29 65.57 0.61 63.03 0.61L63.03 0.61Q60.01 0.61 57.36-0.74 54.71-2.1 53.07-4.86 51.44-7.62 51.44-11.79L51.44-11.79Q51.44-15.7 52.95-18.6 54.46-21.51 57.13-23.11 59.79-24.71 63.18-24.71L63.18-24.71Q67.84-24.71 70.19-21.81 72.53-18.92 72.53-14.45L72.53-14.45Q72.53-14.21 72.53-13.81 72.53-13.4 72.48-13.06L72.48-13.06 56.27-13.06Q56.27-11.16 56.67-9.27 57.08-7.37 58.03-5.83 58.98-4.3 60.59-3.37 62.2-2.44 64.62-2.44L64.62-2.44Q66.77-2.44 68.81-3.43 70.85-4.42 72.53-5.54L72.53-5.54ZM56.54-15.31L67.53-15.31 67.53-16.41Q67.53-18.87 66.34-20.56 65.16-22.24 62.67-22.24L62.67-22.24Q60.2-22.24 58.47-20.39 56.74-18.53 56.54-15.31L56.54-15.31ZM134.27-24.1L134.27-22.14 131.73-21.85 124.87 0 121.33 0 115.42-18.7 108.83 0 105.27 0 98.87-21.85 96.11-22.14 96.11-24.1 107.07-24.1 107.07-22.14 104.73-22Q103.95-21.92 103.95-21.17L103.95-21.17Q103.95-21 103.97-20.9L103.97-20.9 108.12-5.35 114.57-24.1 118.13-24.1 123.92-5.35 128.53-20.9Q128.56-20.97 128.56-21.14L128.56-21.14Q128.56-21.46 128.36-21.72 128.17-21.97 127.83-22L127.83-22 125.53-22.14 125.53-24.1 134.27-24.1ZM174.36-7.25L174.36-7.25Q174.36-3.56 171.82-1.48 169.28 0.61 164.81 0.61L164.81 0.61Q162.52 0.61 160.57 0.13 158.63-0.34 157.88-0.66L157.88-0.66 157.88-7.3 160.42-7.3 161.03-3.05Q161.78-2.56 162.89-2.11 164-1.66 165.47-1.66L165.47-1.66Q167.62-1.66 168.79-2.86 169.96-4.05 169.96-5.54L169.96-5.54Q169.96-7.52 168.55-8.53 167.13-9.55 164.52-10.79L164.52-10.79 163.86-11.11Q161.12-12.4 159.67-13.81 158.22-15.21 158.22-17.46L158.22-17.46Q158.22-20.8 160.56-22.75 162.91-24.71 167.23-24.71L167.23-24.71Q169.42-24.71 171.15-24.3 172.87-23.9 173.62-23.56L173.62-23.56 173.62-17.65 171.01-17.65 170.62-21.14Q170.08-21.56 169.03-21.92 167.98-22.29 166.81-22.29L166.81-22.29Q164.76-22.29 163.76-21.35 162.76-20.41 162.76-18.95L162.76-18.95Q162.76-17.26 163.97-16.27 165.18-15.28 168.35-13.84L168.35-13.84Q170.96-12.65 172.66-11.17 174.36-9.69 174.36-7.25Z" opacity="1" transform="matrix(1,0,0,1,0,0)" fill="#000000" class="slogan-text-1" data-fill-palette-color="secondary" id="text-1"></path></svg></g></svg></g></svg></g></svg></g><g transform="matrix(1,0,0,1,88.4319630677439,0)"><svg viewBox="0 0 218.6560738645122 218.6560738645122" height="218.6560738645122" width="218.6560738645122"><g><svg></svg></g><g id="icon-0"><svg viewBox="0 0 218.6560738645122 218.6560738645122" height="218.6560738645122" width="218.6560738645122"><g><path d="M0 109.328c0-60.38 48.948-109.328 109.328-109.328 60.38 0 109.328 48.948 109.328 109.328 0 60.38-48.948 109.328-109.328 109.328-60.38 0-109.328-48.948-109.328-109.328zM109.328 210.227c55.725 0 100.899-45.174 100.899-100.899 0-55.725-45.174-100.899-100.899-100.899-55.725 0-100.899 45.174-100.899 100.899 0 55.725 45.174 100.899 100.899 100.899z" data-fill-palette-color="accent" fill="#000000" stroke="transparent"></path></g><g transform="matrix(1,0,0,1,54.022023518101946,66.49402884814747)"><svg viewBox="0 0 110.6120268283083 85.66801616821726" height="85.66801616821726" width="110.6120268283083"><g><svg xmlns="http://www.w3.org/2000/svg" xmlns:xlink="http://www.w3.org/1999/xlink" version="1.1" x="0" y="0" viewBox="27 42 260.3 201.6" enable-background="new 0 0 300 300" xml:space="preserve" height="85.66801616821726" width="110.6120268283083" class="icon-cg-0" data-fill-palette-color="accent" id="cg-0"><path d="M287 221.2V47c0-2.8-2.2-5-5-5H65c-2.8 0-5 2.2-5 5v29H32c-2.8 0-5 2.2-5 5v142c0 1 0.3 2 0.8 2.8 1.6 9.9 10.1 17.2 20.7 17.2h0.1c0.1 0 0.2 0 0.3 0 0 0 0.1 0 0.1 0h16 199c0.7 0.4 1.5 0.6 2.3 0.6 11.6 0 21-9.4 21-21C287.2 222.1 287.1 221.6 287 221.2zM37.5 222.3c0-0.8-0.2-1.6-0.5-2.2V86h23v131.6c-0.6 1-0.9 2.1-0.7 3.4 0.1 0.5 0.1 1.1 0.1 1.7 0 0.5 0 0.7-0.1 1.4-0.8 5.2-5.3 9-10.7 9h-0.1C42.4 233 37.5 228.3 37.5 222.3zM268.7 233.3c-0.5-0.2-1.1-0.3-1.7-0.3H66.5c0.8-1.4 1.5-2.9 2-4.4 0.9-0.9 1.5-2.2 1.5-3.6V52h207v171c0 0.4 0.1 0.8 0.1 1.1C276.5 228.7 273.1 232.3 268.7 233.3zM262 71c0-2.8-2.2-5-5-5H89c-2.8 0-5 2.2-5 5v40c0 2.8 2.2 5 5 5h168c2.8 0 5-2.2 5-5V71zM94 76h157v30H94V76zM178 136c0-2.8-2.2-5-5-5H89c-2.8 0-5 2.2-5 5v57c0 2.8 2.2 5 5 5h84c2.8 0 5-2.2 5-5V136zM94 141h74v47H94V141zM262 136c0 2.8-2.2 5-5 5h-70c-2.8 0-5-2.2-5-5s2.2-5 5-5h70C259.8 131 262 133.2 262 136zM262 164c0 2.8-2.2 5-5 5h-70c-2.8 0-5-2.2-5-5s2.2-5 5-5h70C259.8 159 262 161.2 262 164zM262 193c0 2.8-2.2 5-5 5h-70c-2.8 0-5-2.2-5-5s2.2-5 5-5h70C259.8 188 262 190.2 262 193zM262 214c0 2.8-2.2 5-5 5H89c-2.8 0-5-2.2-5-5s2.2-5 5-5h168C259.8 209 262 211.2 262 214z" fill="#000000" data-fill-palette-color="accent"></path></svg></g></svg></g></svg></g></svg></g><g></g></svg></g><defs></defs></svg><rect width="224.20601982278657" height="247.2" fill="none" stroke="none" visibility="hidden"></rect></g></svg></g></svg>