<svg xmlns="http://www.w3.org/2000/svg" version="1.1" xmlns:xlink="http://www.w3.org/1999/xlink" xmlns:svgjs="http://svgjs.dev/svgjs" width="2000" height="648" viewBox="0 0 2000 648"><g transform="matrix(1,0,0,1,1.7632536545580706,-1.5917759269463545)"><svg viewBox="0 0 253 82" data-background-color="#ffffff" preserveAspectRatio="xMidYMid meet" height="648" width="2000" xmlns="http://www.w3.org/2000/svg" xmlns:xlink="http://www.w3.org/1999/xlink"><g id="tight-bounds" transform="matrix(1,0,0,1,-0.22305158730159746,0.20142843520000042)"><svg viewBox="0 0 253.44610317460317 81.5971431296" height="81.5971431296" width="253.44610317460317"><g><svg viewBox="0 0 253.44610317460317 81.5971431296" height="81.5971431296" width="253.44610317460317"><g><svg viewBox="0 0 253.44610317460317 81.5971431296" height="81.5971431296" width="253.44610317460317"><g id="textblocktransform"><svg viewBox="0 0 253.44610317460317 81.5971431296" height="81.5971431296" width="253.44610317460317" id="textblock"><g><svg viewBox="0 0 253.44610317460317 44.0096" height="44.0096" width="253.44610317460317"><g><svg><g></g><g></g></svg></g><g><svg><g><svg></svg></g><g></g></svg></g><g id="text-0"><svg viewBox="0 0 253.44610317460317 44.0096" height="44.0096" width="253.44610317460317"><g transform="matrix(1,0,0,1,0,0)"><svg width="186.2318" viewBox="4 -26.6 115.09 27.200000000000003" height="44.0096" data-palette-color="#ffdc00"><path d="M8.5 0L4 0 4-26 8.35-26 8.35-21.65Q9.75-23.75 11.93-25.18 14.1-26.6 17.1-26.6L17.1-26.6Q21.5-26.6 23.68-23.95 25.85-21.3 25.85-16.95L25.85-16.95 25.85 0 21.35 0 21.35-16.45Q21.35-19.25 20.03-20.95 18.7-22.65 16.35-22.65L16.35-22.65Q14.05-22.65 12-21.03 9.95-19.4 8.5-17.2L8.5-17.2 8.5 0ZM44 0.6L44 0.6Q38.4 0.6 35.12-2.98 31.85-6.55 31.85-13L31.85-13Q31.85-16.9 33.32-19.98 34.8-23.05 37.45-24.83 40.1-26.6 43.6-26.6L43.6-26.6Q47.35-26.6 49.82-24.98 52.3-23.35 53.55-20.6 54.8-17.85 54.8-14.55L54.8-14.55Q54.8-12.8 54.65-11.15L54.65-11.15 36.45-11.15Q36.9-7.5 39-5.45 41.1-3.4 44.55-3.4L44.55-3.4Q46.8-3.4 48.6-3.88 50.4-4.35 52.05-5.1L52.05-5.1 53.1-1.25Q51.3-0.45 49.05 0.08 46.8 0.6 44 0.6ZM36.4-14.8L36.4-14.8 50.65-14.8Q50.65-18.6 48.75-20.65 46.85-22.7 43.5-22.7L43.5-22.7Q40.6-22.7 38.7-20.68 36.8-18.65 36.4-14.8ZM71.2 0L66.25 0 58.05-24.8 62.2-26.25 68.9-5.1 75-24.15 79.84-24.15 85.8-5.1 92.44-26.25 96.45-24.8 88.2 0 83.25 0 77.25-19.35 71.2 0ZM108.69 0.6L108.69 0.6Q105.74 0.6 103.37-0.15 100.99-0.9 99.44-2.1L99.44-2.1 101.34-5.85Q102.64-4.75 104.62-4.03 106.59-3.3 108.84-3.3L108.84-3.3Q111.64-3.3 113.07-4.23 114.49-5.15 114.49-6.6L114.49-6.6Q114.49-7.65 113.97-8.45 113.44-9.25 112.04-10.03 110.64-10.8 107.99-11.7L107.99-11.7Q104.34-12.95 102.52-14.68 100.69-16.4 100.69-19.45L100.69-19.45Q100.69-22.45 103.32-24.53 105.94-26.6 110.59-26.6L110.59-26.6Q113.09-26.6 115.04-26.08 116.99-25.55 118.54-24.75L118.54-24.75 117.29-21.05Q115.94-21.85 114.22-22.35 112.49-22.85 110.39-22.85L110.39-22.85Q107.79-22.85 106.44-21.8 105.09-20.75 105.09-19.5L105.09-19.5Q105.09-18.3 106.14-17.45 107.19-16.6 110.24-15.6L110.24-15.6Q115.19-13.95 117.14-11.95 119.09-9.95 119.09-6.95L119.09-6.95Q119.09-3.45 116.27-1.43 113.44 0.6 108.69 0.6Z" opacity="1" transform="matrix(1,0,0,1,0,0)" fill="#ffdc00" class="wordmark-text-0" data-fill-palette-color="primary"></path></svg></g><g><svg xmlns="http://www.w3.org/2000/svg" xmlns:xlink="http://www.w3.org/1999/xlink" version="1.1" x="196.6222" y="0" viewBox="27 42 260.3 201.6" enable-background="new 0 0 300 300" xml:space="preserve" height="44.0096" width="56.823903174603174" class="icon-cg-0" data-fill-palette-color="accent" id="cg-0"><path d="M287 221.2V47c0-2.8-2.2-5-5-5H65c-2.8 0-5 2.2-5 5v29H32c-2.8 0-5 2.2-5 5v142c0 1 0.3 2 0.8 2.8 1.6 9.9 10.1 17.2 20.7 17.2h0.1c0.1 0 0.2 0 0.3 0 0 0 0.1 0 0.1 0h16 199c0.7 0.4 1.5 0.6 2.3 0.6 11.6 0 21-9.4 21-21C287.2 222.1 287.1 221.6 287 221.2zM37.5 222.3c0-0.8-0.2-1.6-0.5-2.2V86h23v131.6c-0.6 1-0.9 2.1-0.7 3.4 0.1 0.5 0.1 1.1 0.1 1.7 0 0.5 0 0.7-0.1 1.4-0.8 5.2-5.3 9-10.7 9h-0.1C42.4 233 37.5 228.3 37.5 222.3zM268.7 233.3c-0.5-0.2-1.1-0.3-1.7-0.3H66.5c0.8-1.4 1.5-2.9 2-4.4 0.9-0.9 1.5-2.2 1.5-3.6V52h207v171c0 0.4 0.1 0.8 0.1 1.1C276.5 228.7 273.1 232.3 268.7 233.3zM262 71c0-2.8-2.2-5-5-5H89c-2.8 0-5 2.2-5 5v40c0 2.8 2.2 5 5 5h168c2.8 0 5-2.2 5-5V71zM94 76h157v30H94V76zM178 136c0-2.8-2.2-5-5-5H89c-2.8 0-5 2.2-5 5v57c0 2.8 2.2 5 5 5h84c2.8 0 5-2.2 5-5V136zM94 141h74v47H94V141zM262 136c0 2.8-2.2 5-5 5h-70c-2.8 0-5-2.2-5-5s2.2-5 5-5h70C259.8 131 262 133.2 262 136zM262 164c0 2.8-2.2 5-5 5h-70c-2.8 0-5-2.2-5-5s2.2-5 5-5h70C259.8 159 262 161.2 262 164zM262 193c0 2.8-2.2 5-5 5h-70c-2.8 0-5-2.2-5-5s2.2-5 5-5h70C259.8 188 262 190.2 262 193zM262 214c0 2.8-2.2 5-5 5H89c-2.8 0-5-2.2-5-5s2.2-5 5-5h168C259.8 209 262 211.2 262 214z" fill="#000000" data-fill-palette-color="accent"></path></svg></g></svg></g></svg></g><g transform="matrix(1,0,0,1,0,54.399210329599995)"><svg viewBox="0 0 253.44610317460317 27.197932800000004" height="27.197932800000004" width="253.44610317460317"><g transform="matrix(1,0,0,1,0,0)"><svg width="253.44610317460317" viewBox="1 -24.71 235.92 25.32" height="27.197932800000004" data-palette-color="#000000"><path d="M27.34-1.95L27.34 0 16.31 0 16.31-1.95 18.41-2.1Q18.85-2.15 19.15-2.44 19.46-2.73 19.46-3.2L19.46-3.2 19.46-16.21Q19.46-18.58 18.36-19.81 17.26-21.04 14.65-21.04L14.65-21.04Q13.23-21.04 11.83-20.64 10.42-20.24 9.16-19.6L9.16-19.6 9.16-3.2Q9.16-2.17 10.21-2.1L10.21-2.1 12.3-1.95 12.3 0 1 0 1-1.95 3.44-2.1Q4.49-2.17 4.49-3.2L4.49-3.2 4.49-20.56 1-20.56 1-22.19 7.1-24.1 9.16-24.1 9.16-21.61Q11.25-22.8 13.46-23.75 15.67-24.71 17.41-24.71L17.41-24.71Q20.68-24.71 22.39-22.67 24.1-20.63 24.1-16.99L24.1-16.99 24.1-3.2Q24.1-2.73 24.4-2.44 24.71-2.15 25.15-2.1L25.15-2.1 27.34-1.95ZM93.39-5.54L93.39-2.49Q91.29-1.2 88.86-0.29 86.43 0.61 83.89 0.61L83.89 0.61Q80.86 0.61 78.21-0.74 75.56-2.1 73.93-4.86 72.29-7.62 72.29-11.79L72.29-11.79Q72.29-15.7 73.81-18.6 75.32-21.51 77.98-23.11 80.64-24.71 84.04-24.71L84.04-24.71Q88.7-24.71 91.04-21.81 93.39-18.92 93.39-14.45L93.39-14.45Q93.39-14.21 93.39-13.81 93.39-13.4 93.34-13.06L93.34-13.06 77.13-13.06Q77.13-11.16 77.53-9.27 77.93-7.37 78.88-5.83 79.84-4.3 81.45-3.37 83.06-2.44 85.48-2.44L85.48-2.44Q87.63-2.44 89.66-3.43 91.7-4.42 93.39-5.54L93.39-5.54ZM77.4-15.31L88.38-15.31 88.38-16.41Q88.38-18.87 87.2-20.56 86.01-22.24 83.52-22.24L83.52-22.24Q81.06-22.24 79.32-20.39 77.59-18.53 77.4-15.31L77.4-15.31ZM175.98-24.1L175.98-22.14 173.44-21.85 166.58 0 163.04 0 157.13-18.7 150.54 0 146.98 0 140.58-21.85 137.82-22.14 137.82-24.1 148.79-24.1 148.79-22.14 146.44-22Q145.66-21.92 145.66-21.17L145.66-21.17Q145.66-21 145.68-20.9L145.68-20.9 149.84-5.35 156.28-24.1 159.84-24.1 165.63-5.35 170.25-20.9Q170.27-20.97 170.27-21.14L170.27-21.14Q170.27-21.46 170.07-21.72 169.88-21.97 169.54-22L169.54-22 167.24-22.14 167.24-24.1 175.98-24.1ZM236.92-7.25L236.92-7.25Q236.92-3.56 234.38-1.48 231.84 0.61 227.38 0.61L227.38 0.61Q225.08 0.61 223.14 0.13 221.2-0.34 220.44-0.66L220.44-0.66 220.44-7.3 222.98-7.3 223.59-3.05Q224.35-2.56 225.46-2.11 226.57-1.66 228.04-1.66L228.04-1.66Q230.18-1.66 231.36-2.86 232.53-4.05 232.53-5.54L232.53-5.54Q232.53-7.52 231.11-8.53 229.7-9.55 227.08-10.79L227.08-10.79 226.42-11.11Q223.69-12.4 222.24-13.81 220.79-15.21 220.79-17.46L220.79-17.46Q220.79-20.8 223.13-22.75 225.47-24.71 229.79-24.71L229.79-24.71Q231.99-24.71 233.71-24.3 235.43-23.9 236.19-23.56L236.19-23.56 236.19-17.65 233.58-17.65 233.19-21.14Q232.65-21.56 231.6-21.92 230.55-22.29 229.38-22.29L229.38-22.29Q227.33-22.29 226.33-21.35 225.33-20.41 225.33-18.95L225.33-18.95Q225.33-17.26 226.53-16.27 227.74-15.28 230.92-13.84L230.92-13.84Q233.53-12.65 235.23-11.17 236.92-9.69 236.92-7.25Z" opacity="1" transform="matrix(1,0,0,1,0,0)" fill="#000000" class="slogan-text-1" data-fill-palette-color="secondary" id="text-1"></path></svg></g></svg></g></svg></g></svg></g><g></g></svg></g><defs></defs></svg><rect width="253.44610317460317" height="81.5971431296" fill="none" stroke="none" visibility="hidden"></rect></g></svg></g></svg>